<!-- Generator: Adobe Illustrator 18.1.1, SVG Export Plug-In  -->
<svg version="1.1"
xmlns="http://www.w3.org/2000/svg" xmlns:xlink="http://www.w3.org/1999/xlink" xmlns:a="http://ns.adobe.com/AdobeSVGViewerExtensions/3.0/"
x="0px" y="0px" width="581.5px" height="158.2px" viewBox="0 0 581.5 158.2" enable-background="new 0 0 581.5 158.2"
xml:space="preserve">
<defs>
</defs>
<g>
<path d="M0.4,150.3L67.9,2.4C68.5,1.1,70.5,0,71.6,0h2.2c1.1,0,3.1,1.1,3.7,2.4l67,147.9c1.3,2.9-0.4,5.7-3.7,5.7H127
c-2.6,0-4.2-1.3-5.1-3.3l-13.6-30.1H36.5c-4.4,10.1-9,20-13.4,30.1c-0.7,1.5-2.4,3.3-5.1,3.3H4.2C0.9,156-0.9,153.1,0.4,150.3z
M100,103.7l-27-60.2h-1.1L45,103.7H100z"/>
<path d="M166.5,6.4c0-2.2,1.8-4.2,4.2-4.2h14.5c2.2,0,4.2,2,4.2,4.2v129.2h59.5c2.4,0,4.2,2,4.2,4.2v12.1c0,2.2-1.8,4.2-4.2,4.2
h-78.2c-2.4,0-4.2-2-4.2-4.2V6.4z"/>
<path d="M344,0c21.1,0,38.4,7.7,53.4,20.4c1.8,1.8,2,4.4,0.2,6.2c-3.3,3.5-6.6,6.8-9.9,10.3c-1.8,2-3.5,1.8-5.7-0.2
c-10.3-9-23.9-14.9-37.3-14.9c-31.2,0-55.1,26.4-55.1,57.1c0,30.5,23.9,56.9,55.1,56.9c18.2,0,30.8-6.6,33-7.5v-24.6h-21.5
c-2.4,0-4.2-1.8-4.2-4V87c0-2.4,1.8-4.2,4.2-4.2h40c2.2,0,4,2,4,4.2c0,17.6,0.2,35.6,0.2,53.2c0,1.1-0.9,2.9-1.8,3.5
c0,0-22.6,14.5-54.5,14.5c-43.7,0-79.1-34.9-79.1-78.9S300.3,0,344,0z"/>
<path d="M502.4,0c43.9,0,79.1,35.4,79.1,79.3s-35.2,78.9-79.1,78.9c-43.9,0-78.9-34.9-78.9-78.9S458.5,0,502.4,0z M502.4,136.2
c31.4,0,57.1-25.5,57.1-56.9c0-31.2-25.7-57.3-57.1-57.3c-31.2,0-56.9,26.1-56.9,57.3C445.5,110.7,471.2,136.2,502.4,136.2z"/>
</g>
</svg>
