<?xml version="1.0" encoding="utf-8"?>
<!-- Generator: Adobe Illustrator 18.1.1, SVG Export Plug-In . SVG Version: 6.00 Build 0)  -->
<svg version="1.1" id="レイヤー_1" xmlns="http://www.w3.org/2000/svg" xmlns:xlink="http://www.w3.org/1999/xlink" x="0px"
	 y="0px" viewBox="0 0 1280 348.3" enable-background="new 0 0 1280 348.3" xml:space="preserve">
<g>
	<path d="M0.9,330.9L149.6,5.4c1.3-2.9,5.7-5.2,8.2-5.2h4.9c2.4,0,6.9,2.4,8.2,5.2l147.5,325.5c2.9,6.4-0.9,12.6-8.2,12.6h-30.5
		c-5.7,0-9.2-2.9-11.2-7.2L238.4,270h-158c-9.7,22.2-19.8,44-29.5,66.3c-1.5,3.3-5.2,7.2-11.2,7.2H9.3C2,343.4-2,336.9,0.9,330.9z
		 M220.1,228.3L160.7,95.7h-2.4L99.1,228.3H220.1z"/>
	<path d="M366.5,14.1c0-4.9,4-9.2,9.2-9.2h31.9c4.9,0,9.2,4.4,9.2,9.2v284.4h130.9c5.2,0,9.2,4.4,9.2,9.2v26.7c0,4.9-4,9.2-9.2,9.2
		h-172c-5.2,0-9.2-4.4-9.2-9.2V14.1z"/>
	<path d="M757.2,0c46.5,0,84.6,17,117.5,45c4,4,4.4,9.7,0.5,13.6c-7.2,7.7-14.6,15-21.8,22.7c-4,4.4-7.7,4-12.6-0.5
		C818.1,61,788.2,48,758.7,48c-68.7,0-121.2,58.1-121.2,125.7c0,67.1,52.6,125.2,121.2,125.2c40.1,0,67.8-14.6,72.7-16.5v-54.2
		h-47.3c-5.2,0-9.2-4-9.2-8.9v-28c0-5.2,4-9.2,9.2-9.2h88.1c4.9,0,8.9,4.4,8.9,9.2c0,38.8,0.5,78.4,0.5,117.1c0,2.4-2,6.4-4,7.7
		c0,0-49.7,31.9-120,31.9c-96.2,0-174.1-76.9-174.1-173.7S661.1,0,757.2,0z"/>
	<path d="M1105.9,0c96.7,0,174.1,77.9,174.1,174.6s-77.5,173.7-174.1,173.7c-96.7,0-173.7-76.9-173.7-173.7S1009.2,0,1105.9,0z
		 M1105.9,299.8c69.1,0,125.7-56.1,125.7-125.2c0-68.7-56.6-126.1-125.7-126.1c-68.7,0-125.2,57.4-125.2,126.1
		C980.7,243.7,1037.2,299.8,1105.9,299.8z"/>
</g>
</svg>
